<svg id="visual" viewBox="0 0 900 600" width="900" height="600" xmlns="http://www.w3.org/2000/svg" xmlns:xlink="http://www.w3.org/1999/xlink" version="1.1"><rect x="0" y="0" width="900" height="600" fill="#F4FDFF"></rect><path d="M0 388L129 358L257 448L386 421L514 358L643 445L771 425L900 349L900 601L771 601L643 601L514 601L386 601L257 601L129 601L0 601Z" fill="#2e7acd"></path><path d="M0 463L129 468L257 460L386 455L514 467L643 406L771 427L900 412L900 601L771 601L643 601L514 601L386 601L257 601L129 601L0 601Z" fill="#81a8d3"></path><path d="M0 477L129 503L257 476L386 475L514 456L643 456L771 492L900 498L900 601L771 601L643 601L514 601L386 601L257 601L129 601L0 601Z" fill="#afc2d5"></path><path d="M0 525L129 512L257 487L386 538L514 538L643 495L771 492L900 518L900 601L771 601L643 601L514 601L386 601L257 601L129 601L0 601Z" fill="#81a8d3"></path><path d="M0 536L129 546L257 565L386 557L514 574L643 546L771 573L900 561L900 601L771 601L643 601L514 601L386 601L257 601L129 601L0 601Z" fill="#2e7acd"></path></svg>